<svg xmlns="http://www.w3.org/2000/svg" viewBox="0 0 192 192"><rect width="192" height="192" rx="48" fill="#6d5dfc"/><circle cx="96" cy="96" r="57" fill="#fff" opacity=".16"/><path fill="#fff" d="M54 64c0-8 6-14 14-14h56c8 0 14 6 14 14v64c0 8-6 14-14 14H68c-8 0-14-6-14-14V64zm23 22v11h38V86H77zm0 23v11h25v-11H77z"/><circle cx="126" cy="115" r="22" fill="#f5b82e"/><path d="M127 100v30m9-22c0-4-4-7-9-7s-9 3-9 7 4 7 9 7 9 3 9 7-4 7-9 7-9-3-9-7" fill="none" stroke="#fff" stroke-width="4" stroke-linecap="round"/></svg>
